<?xml version="1.0" standalone="no"?>
<!DOCTYPE svg PUBLIC "-//W3C//DTD SVG 20010904//EN"
 "http://www.w3.org/TR/2001/REC-SVG-20010904/DTD/svg10.dtd">
<svg version="1.0" xmlns="http://www.w3.org/2000/svg"
 width="700.000000pt" height="700.000000pt" viewBox="0 0 700.000000 700.000000"
 preserveAspectRatio="xMidYMid meet">
<metadata>
Created by potrace 1.11, written by Peter Selinger 2001-2013
</metadata>
<g transform="translate(0.000000,700.000000) scale(0.100000,-0.100000)"
fill="#000000" stroke="none">
<path d="M5388 6986 c-81 -29 -126 -90 -135 -181 -6 -66 9 -121 48 -168 60
-73 36 -71 681 -71 507 -1 578 -3 579 -16 0 -8 2 -269 3 -580 2 -631 0 -609
73 -669 47 -39 103 -55 170 -48 104 11 176 80 188 181 3 28 5 359 3 736 -3
738 -1 703 -57 763 -60 65 -14 62 -801 64 -569 2 -722 -1 -752 -11z"/>
<path d="M1481 5237 c-46 -8 -61 -16 -101 -57 -28 -29 -50 -62 -54 -80 -9 -50
-6 -111 8 -150 7 -20 401 -580 876 -1245 475 -666 876 -1228 892 -1250 156
-225 446 -620 455 -620 6 0 32 -19 58 -43 38 -34 53 -42 85 -42 21 0 49 4 62
9 41 16 103 88 122 143 11 29 22 58 26 63 3 6 6 367 6 802 -1 522 2 794 9 796
19 7 730 0 765 -7 229 -44 415 -199 495 -411 31 -81 40 -138 39 -250 -2 -180
-63 -324 -189 -450 -121 -121 -247 -176 -435 -190 -172 -13 -243 -79 -243
-226 1 -71 15 -108 57 -151 48 -47 88 -59 192 -59 52 0 98 2 102 5 4 2 31 6
60 10 138 16 340 106 479 212 225 172 378 444 409 724 25 230 2 387 -82 555
-56 111 -102 174 -199 271 -82 84 -242 202 -295 219 -11 4 -20 10 -20 15 0 5
19 40 43 77 108 169 150 317 143 502 -15 387 -278 713 -657 814 -81 21 -100
22 -514 22 -401 0 -432 -1 -464 -19 -38 -20 -62 -45 -89 -91 -16 -28 -17 -115
-20 -1259 l-2 -1229 -285 399 c-156 220 -364 511 -462 648 -98 137 -199 279
-224 315 -73 104 -637 895 -646 906 -5 6 -47 64 -93 130 -99 140 -130 172
-185 186 -59 16 -65 16 -124 6z m2949 -430 c108 -12 223 -79 294 -173 53 -70
79 -145 82 -241 5 -133 -31 -227 -119 -317 -78 -79 -153 -118 -255 -132 -39
-5 -354 -9 -467 -5 l-30 1 2 417 c1 230 2 426 2 435 1 11 11 18 29 20 40 4
410 0 462 -5z"/>
<path d="M1488 3934 c-2 -2 -13 -5 -24 -7 -56 -9 -109 -58 -133 -123 -19 -48
-19 -88 -18 -974 l2 -925 22 -40 c11 -22 32 -50 45 -62 50 -46 141 -64 218
-43 54 15 125 83 139 135 18 64 14 1858 -3 1908 -28 77 -97 126 -186 132 -32
2 -60 2 -62 -1z"/>
<path d="M148 1740 c-75 -22 -132 -88 -143 -164 -3 -22 -5 -354 -3 -736 3
-672 4 -696 23 -735 23 -46 43 -63 100 -87 36 -15 108 -17 740 -17 430 -1 713
3 734 9 85 24 139 92 148 185 9 94 -33 176 -110 217 -42 23 -43 23 -615 24
-315 1 -575 4 -579 7 -3 4 -7 264 -8 579 -1 640 1 617 -72 677 -57 47 -142 63
-215 41z"/>
</g>
</svg>
