<?xml version="1.0" standalone="no"?>
<!DOCTYPE svg PUBLIC "-//W3C//DTD SVG 20010904//EN"
 "http://www.w3.org/TR/2001/REC-SVG-20010904/DTD/svg10.dtd">
<svg version="1.0" xmlns="http://www.w3.org/2000/svg"
 width="700.000000pt" height="700.000000pt" viewBox="0 0 700.000000 700.000000"
 preserveAspectRatio="xMidYMid meet">
<metadata>
Created by potrace 1.11, written by Peter Selinger 2001-2013
</metadata>
<g transform="translate(0.000000,700.000000) scale(0.100000,-0.100000)"
fill="#000000" stroke="none">
<path d="M3760 5828 c-36 -3 -81 -13 -101 -22 -52 -22 -115 -90 -138 -149 -19
-51 -20 -81 -20 -1666 -1 -888 -3 -1616 -5 -1618 -2 -2 -31 36 -65 84 -71 102
-123 176 -321 452 -80 112 -157 219 -171 239 -14 21 -184 260 -378 532 -583
817 -1250 1753 -1342 1883 -104 147 -153 203 -194 224 -124 65 -281 42 -363
-52 -76 -86 -90 -201 -40 -328 8 -20 762 -1086 942 -1332 8 -11 98 -137 200
-280 102 -143 189 -264 193 -270 5 -5 24 -32 43 -60 39 -55 241 -338 265 -371
54 -74 295 -412 337 -474 28 -41 54 -77 58 -80 3 -3 26 -34 51 -70 24 -36 46
-67 49 -70 3 -3 189 -263 414 -578 225 -315 423 -584 441 -597 74 -57 231 -78
309 -40 79 38 139 123 153 217 3 24 6 506 7 1071 l0 1028 515 -3 516 -4 90
-28 c321 -98 544 -340 609 -658 20 -99 20 -268 0 -366 -79 -384 -399 -663
-787 -687 -137 -9 -157 -13 -216 -43 -38 -19 -64 -42 -87 -75 -41 -59 -54
-104 -54 -183 0 -116 52 -206 146 -254 45 -23 60 -25 179 -25 187 0 293 19
470 82 487 172 853 615 931 1128 15 101 21 321 11 405 -18 140 -43 236 -94
364 -30 76 -124 252 -154 290 -91 114 -121 150 -168 197 -67 66 -147 133 -216
180 -54 37 -61 41 -148 87 l-57 30 23 28 c120 146 208 360 232 564 7 64 8 230
0 262 -2 13 -7 41 -10 63 -7 58 -26 137 -36 157 -5 10 -9 22 -9 28 0 16 -71
169 -104 225 -89 149 -241 303 -390 395 -115 70 -298 140 -408 155 -21 3 -55
8 -75 11 -52 9 -953 11 -1033 2z m1052 -599 c106 -30 184 -75 264 -154 187
-184 226 -464 98 -693 -38 -68 -140 -178 -190 -205 -157 -87 -182 -91 -569
-91 l-330 -1 0 583 -1 582 328 0 c296 -1 334 -3 400 -21z"/>
<path d="M832 4079 c-93 -12 -173 -63 -209 -134 -39 -75 -40 -85 -39 -1340 l1
-1220 26 -56 c49 -104 140 -159 264 -159 147 0 259 85 283 217 13 72 8 2460
-5 2499 -48 140 -168 213 -321 193z"/>
</g>
</svg>
